<?xml version="1.0" encoding="UTF-8"?>
<svg width="414px" height="736px" viewBox="0 0 414 736" version="1.1" xmlns="http://www.w3.org/2000/svg" xmlns:xlink="http://www.w3.org/1999/xlink">
    <!-- Generator: Sketch 49.3 (51167) - http://www.bohemiancoding.com/sketch -->
    <title>Calendar view</title>
    <desc>Created with Sketch.</desc>
    <defs>
        <rect id="path-1" x="111" y="544" width="193" height="38" rx="3"></rect>
        <filter x="-2.6%" y="-10.5%" width="106.2%" height="131.6%" filterUnits="objectBoundingBox" id="filter-2">
            <feMorphology radius="2.5" operator="dilate" in="SourceAlpha" result="shadowSpreadOuter1"></feMorphology>
            <feOffset dx="1" dy="2" in="shadowSpreadOuter1" result="shadowOffsetOuter1"></feOffset>
            <feGaussianBlur stdDeviation="0.5" in="shadowOffsetOuter1" result="shadowBlurOuter1"></feGaussianBlur>
            <feComposite in="shadowBlurOuter1" in2="SourceAlpha" operator="out" result="shadowBlurOuter1"></feComposite>
            <feColorMatrix values="0 0 0 0 0.903486395   0 0 0 0 0.903486395   0 0 0 0 0.903486395  0 0 0 0.5 0" type="matrix" in="shadowBlurOuter1"></feColorMatrix>
        </filter>
    </defs>
    <g id="Calendar-view" stroke="none" stroke-width="1" fill="none" fill-rule="evenodd">
        <g id="667987" transform="translate(132.000000, 125.000000)" fill-rule="nonzero">
            <g id="Group" transform="translate(2.419355, 12.096774)" fill="#FFDB58">
                <rect id="Rectangle-path" x="104.032258" y="106.451613" width="31.4516129" height="14.516129"></rect>
                <rect id="Rectangle-path" x="9.67741935" y="106.451613" width="31.4516129" height="14.516129"></rect>
                <path d="M140.983065,63.1766129 C127.61129,56.0395161 86.2330645,31.7274194 77.4193548,0 L67.7419355,0 C58.9282258,31.7274194 17.55,56.0395161 4.17822581,63.1766129 C1.59677419,64.5556452 0,67.233871 0,70.1612903 C0,70.1612903 13.2701613,73.9427419 54.825,74.8185484 C60.0774194,71.8645161 66.1258065,70.1612903 72.5806452,70.1612903 C79.0354839,70.1612903 85.083871,71.8645161 90.3362903,74.8185484 C104.397581,74.5233871 115.221774,73.8943548 123.387097,73.1903226 L128.225806,72.7354839 C140.542742,71.4774194 145.16129,70.1612903 145.16129,70.1612903 C145.16129,67.233871 143.564516,64.5556452 140.983065,63.1766129 Z" id="Shape"></path>
            </g>
            <g id="Group" fill="#333333">
                <path d="M148.243548,84.5854839 L150,84.0846774 L150,82.2580645 C150,78.4330645 147.909677,74.9395161 144.539516,73.1395161 C132.082258,66.4887097 90.7596774,42.3822581 82.1709677,11.4483871 L81.6774194,9.67741935 L77.4193548,9.67741935 L77.4193548,0 L72.5806452,0 L72.5806452,9.67741935 L68.3225806,9.67741935 L67.8290323,11.4483871 C59.2379032,42.3822581 17.9177419,66.4887097 5.45806452,73.1395161 C2.09032258,74.9395161 0,78.4330645 0,82.2580645 L0,84.0846774 L1.75645161,84.5854839 C1.97903226,84.6483871 4.29919355,85.2895161 9.67741935,86.0879032 L9.67741935,145.16129 L0,145.16129 L0,150 L50.8064516,150 L99.1935484,150 L150,150 L150,145.16129 L140.322581,145.16129 L140.322581,86.0806452 C145.8,85.2701613 148.108065,84.6241935 148.243548,84.5854839 Z M14.516129,121.969355 L23.1919355,130.645161 L14.516129,130.645161 L14.516129,121.969355 Z M41.1290323,130.645161 L32.4532258,130.645161 L41.1290323,121.969355 L41.1290323,130.645161 Z M27.8225806,128.433871 L20.3564516,120.967742 L35.2887097,120.967742 L27.8225806,128.433871 Z M55.6451613,145.16129 L55.6451613,118.548387 C55.6451613,107.876613 64.3282258,99.1935484 75,99.1935484 C85.6717742,99.1935484 94.3548387,107.876613 94.3548387,118.548387 L94.3548387,145.16129 L55.6451613,145.16129 Z M108.870968,121.969355 L117.546774,130.645161 L108.870968,130.645161 L108.870968,121.969355 Z M114.71129,120.967742 L129.643548,120.967742 L122.177419,128.433871 L114.71129,120.967742 Z M135.483871,121.969355 L135.483871,130.645161 L126.808065,130.645161 L135.483871,121.969355 Z M135.483871,116.129032 L108.870968,116.129032 L108.870968,111.290323 L104.032258,111.290323 L104.032258,140.322581 L108.870968,140.322581 L108.870968,135.483871 L135.483871,135.483871 L135.483871,145.16129 L99.1935484,145.16129 L99.1935484,118.548387 C99.1935484,105.208065 88.3403226,94.3548387 75,94.3548387 C61.6596774,94.3548387 50.8064516,105.208065 50.8064516,118.548387 L50.8064516,145.16129 L14.516129,145.16129 L14.516129,135.483871 L41.1290323,135.483871 L41.1290323,140.322581 L45.9677419,140.322581 L45.9677419,111.290323 L41.1290323,111.290323 L41.1290323,116.129032 L14.516129,116.129032 L14.516129,86.733871 C23.1508065,87.7814516 36.7717742,88.9040323 57.1935484,89.3346774 L57.8540323,89.3491935 L58.4298387,89.025 C68.5427419,83.3346774 81.4548387,83.3346774 91.5677419,89.025 L92.1435484,89.3491935 L92.8016129,89.3346774 C105.285484,89.0733871 116.458065,88.5217742 126.012097,87.6967742 L125.595968,82.8774194 C116.315323,83.6782258 105.469355,84.2177419 93.3508065,84.4814516 C82.0862903,78.4040323 67.908871,78.4040323 56.6443548,84.4814516 C25.2629032,83.7943548 10.2459677,81.408871 5.16048387,80.3951613 C5.61532258,79.1322581 6.51774194,78.0580645 7.73709677,77.4072581 C20.3951613,70.6524194 61.8508065,46.4298387 71.966129,14.516129 L78.033871,14.516129 C88.1516129,46.4298387 129.604839,70.6524194 142.260484,77.4072581 C143.484677,78.0604839 144.389516,79.1346774 144.839516,80.3975806 C142.444355,80.8790323 137.85,81.6629032 130.398387,82.425 L130.889516,87.2395161 C132.56129,87.0677419 134.080645,86.8959677 135.481452,86.7266129 L135.481452,116.129032 L135.483871,116.129032 Z" id="Shape"></path>
                <rect id="Rectangle-path" x="70.1612903" y="33.8709677" width="4.83870968" height="4.83870968"></rect>
                <rect id="Rectangle-path" x="33.8709677" y="70.1612903" width="4.83870968" height="4.83870968"></rect>
                <rect id="Rectangle-path" x="55.6451613" y="55.6451613" width="4.83870968" height="4.83870968"></rect>
                <rect id="Rectangle-path" x="65.3225806" y="65.3225806" width="4.83870968" height="4.83870968"></rect>
                <rect id="Rectangle-path" x="89.516129" y="50.8064516" width="4.83870968" height="4.83870968"></rect>
                <rect id="Rectangle-path" x="111.290323" y="70.1612903" width="4.83870968" height="4.83870968"></rect>
                <rect id="Rectangle-path" x="96.7741935" y="62.9032258" width="4.83870968" height="4.83870968"></rect>
                <rect id="Rectangle-path" x="125.806452" y="72.5806452" width="4.83870968" height="4.83870968"></rect>
                <rect id="Rectangle-path" x="87.0967742" y="72.5806452" width="4.83870968" height="4.83870968"></rect>
                <rect id="Rectangle-path" x="45.9677419" y="75" width="4.83870968" height="4.83870968"></rect>
            </g>
        </g>
        <text id="FoodHub" font-family="CourierNewPSMT, Courier New" font-size="25" font-weight="normal" fill="#0C0C0C">
            <tspan x="154" y="314">FoodHub</tspan>
        </text>
        <g id="Rectangle-3">
            <use fill="black" fill-opacity="1" filter="url(#filter-2)" xlink:href="#path-1"></use>
            <use fill="#FFDB58" fill-rule="evenodd" xlink:href="#path-1"></use>
            <rect stroke="#333333" stroke-width="2" x="110" y="543" width="195" height="40" rx="3"></rect>
        </g>
        <text id="Submit" font-family="Avenir-Light, Avenir" font-size="23" font-weight="300" fill="#000000">
            <tspan x="171" y="569">Submit</tspan>
        </text>
        <path d="M104.5,460.5 L311.502415,460.5" id="Line" stroke="#979797" stroke-width="0.3" stroke-linecap="square"></path>
        <text id="Sign-up-now-Simply-e" font-family="CourierNewPS-BoldMT, Courier New" font-size="12" font-weight="bold" fill="#0C0C0C">
            <tspan x="167.393555" y="393">Sign up now</tspan>
            <tspan x="246.606445" y="393" font-family="CourierNewPSMT, Courier New" font-weight="normal"></tspan>
            <tspan x="73.7783203" y="407" font-family="CourierNewPSMT, Courier New" font-weight="normal">Simply enter your phone number below:</tspan>
        </text>
        <text id="66880053" font-family="CourierNewPSMT, Courier New" font-size="13" font-weight="normal" fill="#0C0C0C">
            <tspan x="176" y="455">66880053</tspan>
        </text>
        <text id="phone-number" font-family="CourierNewPSMT, Courier New" font-size="8" font-weight="normal" fill="#0C0C0C">
            <tspan x="104" y="442">phone number</tspan>
        </text>
    </g>
</svg>